<mxfile host="app.diagrams.net" modified="2020-09-28T11:16:26.490Z" agent="5.0 (Windows NT 10.0; Win64; x64) AppleWebKit/537.36 (KHTML, like Gecko) Chrome/85.0.4183.121 Safari/537.36 Edg/85.0.564.63" etag="jzi_wqzChQdzzE1gziqm" version="13.6.6" type="github">
  <diagram id="0TAmJCTqZkZq0XUQib4b" name="第 1 页">
    <mxGraphModel dx="1038" dy="548" grid="1" gridSize="10" guides="1" tooltips="1" connect="1" arrows="1" fold="1" page="1" pageScale="1" pageWidth="827" pageHeight="1169" math="0" shadow="0">
      <root>
        <mxCell id="0" />
        <mxCell id="1" parent="0" />
        <mxCell id="lTZIp_rwvE3XWnG7Pdrd-1" value="name" style="rounded=0;whiteSpace=wrap;html=1;fillColor=#f8cecc;strokeColor=#b85450;fontSize=19;" vertex="1" parent="1">
          <mxGeometry x="140" y="130" width="100" height="50" as="geometry" />
        </mxCell>
        <mxCell id="lTZIp_rwvE3XWnG7Pdrd-3" value="张三" style="rounded=0;whiteSpace=wrap;html=1;fontSize=19;fillColor=#fff2cc;strokeColor=#d6b656;" vertex="1" parent="1">
          <mxGeometry x="240" y="130" width="100" height="50" as="geometry" />
        </mxCell>
        <mxCell id="lTZIp_rwvE3XWnG7Pdrd-5" value="&lt;span style=&quot;color: rgb(51 , 51 , 51) ; font-size: 25px&quot;&gt;key-string&lt;/span&gt;" style="text;html=1;strokeColor=#666666;fillColor=#f5f5f5;align=center;verticalAlign=middle;whiteSpace=wrap;rounded=0;fontColor=#333333;" vertex="1" parent="1">
          <mxGeometry x="140" y="80" width="200" height="50" as="geometry" />
        </mxCell>
        <mxCell id="lTZIp_rwvE3XWnG7Pdrd-6" style="edgeStyle=orthogonalEdgeStyle;rounded=0;orthogonalLoop=1;jettySize=auto;html=1;exitX=0.5;exitY=1;exitDx=0;exitDy=0;fontSize=19;" edge="1" parent="1" source="lTZIp_rwvE3XWnG7Pdrd-3" target="lTZIp_rwvE3XWnG7Pdrd-3">
          <mxGeometry relative="1" as="geometry" />
        </mxCell>
        <mxCell id="lTZIp_rwvE3XWnG7Pdrd-7" value="&lt;span style=&quot;color: rgb(51 , 51 , 51) ; font-size: 25px&quot;&gt;key-hash&lt;/span&gt;" style="text;html=1;strokeColor=#666666;fillColor=#f5f5f5;align=center;verticalAlign=middle;whiteSpace=wrap;rounded=0;fontColor=#333333;" vertex="1" parent="1">
          <mxGeometry x="90" y="255" width="300" height="50" as="geometry" />
        </mxCell>
        <mxCell id="lTZIp_rwvE3XWnG7Pdrd-8" value="person" style="rounded=0;whiteSpace=wrap;html=1;fillColor=#f8cecc;strokeColor=#b85450;fontSize=19;" vertex="1" parent="1">
          <mxGeometry x="90" y="305" width="100" height="50" as="geometry" />
        </mxCell>
        <mxCell id="lTZIp_rwvE3XWnG7Pdrd-9" value="name" style="rounded=0;whiteSpace=wrap;html=1;fillColor=#ffe6cc;strokeColor=#d79b00;fontSize=19;" vertex="1" parent="1">
          <mxGeometry x="190" y="305" width="100" height="50" as="geometry" />
        </mxCell>
        <mxCell id="lTZIp_rwvE3XWnG7Pdrd-11" value="李四" style="rounded=0;whiteSpace=wrap;html=1;fontSize=19;fillColor=#fff2cc;strokeColor=#d6b656;" vertex="1" parent="1">
          <mxGeometry x="290" y="305" width="100" height="50" as="geometry" />
        </mxCell>
        <mxCell id="lTZIp_rwvE3XWnG7Pdrd-12" value="age" style="rounded=0;whiteSpace=wrap;html=1;fillColor=#ffe6cc;strokeColor=#d79b00;fontSize=19;" vertex="1" parent="1">
          <mxGeometry x="190" y="355" width="100" height="50" as="geometry" />
        </mxCell>
        <mxCell id="lTZIp_rwvE3XWnG7Pdrd-13" value="18" style="rounded=0;whiteSpace=wrap;html=1;fontSize=19;fillColor=#fff2cc;strokeColor=#d6b656;" vertex="1" parent="1">
          <mxGeometry x="290" y="355" width="100" height="50" as="geometry" />
        </mxCell>
        <mxCell id="lTZIp_rwvE3XWnG7Pdrd-14" value="gender" style="rounded=0;whiteSpace=wrap;html=1;fillColor=#ffe6cc;strokeColor=#d79b00;fontSize=19;" vertex="1" parent="1">
          <mxGeometry x="190" y="405" width="100" height="50" as="geometry" />
        </mxCell>
        <mxCell id="lTZIp_rwvE3XWnG7Pdrd-15" value="男" style="rounded=0;whiteSpace=wrap;html=1;fontSize=19;fillColor=#fff2cc;strokeColor=#d6b656;" vertex="1" parent="1">
          <mxGeometry x="290" y="405" width="100" height="50" as="geometry" />
        </mxCell>
        <mxCell id="lTZIp_rwvE3XWnG7Pdrd-16" value="key" style="rounded=0;whiteSpace=wrap;html=1;fillColor=#f8cecc;strokeColor=#b85450;fontSize=19;" vertex="1" parent="1">
          <mxGeometry x="510" y="130" width="100" height="50" as="geometry" />
        </mxCell>
        <mxCell id="lTZIp_rwvE3XWnG7Pdrd-17" value="value1，value1，value2，value2 ..." style="rounded=0;whiteSpace=wrap;html=1;fontSize=19;fillColor=#fff2cc;strokeColor=#d6b656;" vertex="1" parent="1">
          <mxGeometry x="610" y="130" width="460" height="50" as="geometry" />
        </mxCell>
        <mxCell id="lTZIp_rwvE3XWnG7Pdrd-18" value="&lt;span style=&quot;color: rgb(51 , 51 , 51) ; font-size: 25px&quot;&gt;key-list&lt;/span&gt;" style="text;html=1;strokeColor=#666666;fillColor=#f5f5f5;align=center;verticalAlign=middle;whiteSpace=wrap;rounded=0;fontColor=#333333;" vertex="1" parent="1">
          <mxGeometry x="510" y="80" width="560" height="50" as="geometry" />
        </mxCell>
        <mxCell id="lTZIp_rwvE3XWnG7Pdrd-19" value="key" style="rounded=0;whiteSpace=wrap;html=1;fillColor=#f8cecc;strokeColor=#b85450;fontSize=19;" vertex="1" parent="1">
          <mxGeometry x="510" y="270" width="100" height="50" as="geometry" />
        </mxCell>
        <mxCell id="lTZIp_rwvE3XWnG7Pdrd-20" value="value2，value1，value3 ..." style="rounded=0;whiteSpace=wrap;html=1;fontSize=19;fillColor=#fff2cc;strokeColor=#d6b656;" vertex="1" parent="1">
          <mxGeometry x="610" y="270" width="460" height="50" as="geometry" />
        </mxCell>
        <mxCell id="lTZIp_rwvE3XWnG7Pdrd-21" value="&lt;span style=&quot;color: rgb(51 , 51 , 51) ; font-size: 25px&quot;&gt;key-set&lt;/span&gt;" style="text;html=1;strokeColor=#666666;fillColor=#f5f5f5;align=center;verticalAlign=middle;whiteSpace=wrap;rounded=0;fontColor=#333333;" vertex="1" parent="1">
          <mxGeometry x="510" y="220" width="560" height="50" as="geometry" />
        </mxCell>
        <mxCell id="lTZIp_rwvE3XWnG7Pdrd-22" value="key" style="rounded=0;whiteSpace=wrap;html=1;fillColor=#f8cecc;strokeColor=#b85450;fontSize=19;" vertex="1" parent="1">
          <mxGeometry x="510" y="405" width="100" height="50" as="geometry" />
        </mxCell>
        <mxCell id="lTZIp_rwvE3XWnG7Pdrd-23" value="score1-value1，score2-value2，score3-value3 ..." style="rounded=0;whiteSpace=wrap;html=1;fontSize=19;fillColor=#fff2cc;strokeColor=#d6b656;" vertex="1" parent="1">
          <mxGeometry x="610" y="405" width="460" height="50" as="geometry" />
        </mxCell>
        <mxCell id="lTZIp_rwvE3XWnG7Pdrd-24" value="&lt;span style=&quot;color: rgb(51 , 51 , 51) ; font-size: 25px&quot;&gt;key-zset&lt;/span&gt;" style="text;html=1;strokeColor=#666666;fillColor=#f5f5f5;align=center;verticalAlign=middle;whiteSpace=wrap;rounded=0;fontColor=#333333;" vertex="1" parent="1">
          <mxGeometry x="510" y="355" width="560" height="50" as="geometry" />
        </mxCell>
      </root>
    </mxGraphModel>
  </diagram>
</mxfile>
